<svg width="220" height="80" viewBox="0 0 220 80" fill="none" xmlns="http://www.w3.org/2000/svg">
  <rect width="220" height="80" rx="18" fill="#F7D600"/>
  <path d="M47.9 56H33V24H47.4C54.8 24 59.1 27.4 59.1 33.2C59.1 37.3 56.8 39.9 53.1 41.1V41.3C57.7 42.1 60.6 45.3 60.6 50C60.6 56 55.9 60 47.9 60V56ZM41.4 38.3H46.2C49.2 38.3 50.9 37 50.9 34.4C50.9 31.9 49.3 30.6 46.4 30.6H41.4V38.3ZM41.4 53.2H46.9C50.3 53.2 52.1 51.8 52.1 49C52.1 46.1 50.1 44.6 46.5 44.6H41.4V53.2Z" fill="black"/>
  <path d="M83.5 60C72.9 60 65.8 52.7 65.8 42C65.8 31.3 73 24 83.7 24C92.8 24 99.2 29.1 100.5 37.1H91.7C90.8 33.4 87.8 31 83.7 31C77.9 31 74.5 35.2 74.5 42C74.5 48.8 77.9 53 83.8 53C88.9 53 92.1 50.1 92.3 45.5H84.4V39.1H100.6V44.2C100.6 54 94 60 83.5 60Z" fill="black"/>
  <path d="M115.2 60L103.5 24H112.7L120.1 50H120.3L127.7 24H136.7L124.8 60H115.2Z" fill="black"/>
</svg>
